:SAMPLES-PER-SECOND 30
:FULLY-SPECIFIED
:DEGREES
1286
root  13.9592 40.6191 10.2218 155.307 86.1217 159.198
RightUpLeg  2.61192 -12.0806 -12.3348
RightLeg  7.41312 -11.4358 2.4176
RightFoot  -0.572022 -0.327661 3.42462
RightToes  0.000481921 0.542163 -0.142578
Spine  -4.85931 0.250658 3.14288
Spine1  15.496 0.68838 -1.58841
HEad  14.9655 -5.25044 2.52424
LeftShoulder1  7.23314 -17.392 -28.5005
LeftArm  -4.5869 -75.8841 -36.1378
LeftForeArm  15.1796 2.50162 -10.7473
LeftHand  -0.25398 0.0180481 5.50724
RightShoulder  2.52215 9.53999 12.2978
RightArm  -13.2543 72.3282 50.8739
RightForeArm  -7.55265 -6.25574 4.31648
RightHand  -2.07279 8.92598 -17.1395
LeftUpLeg  3.00933 7.51208 8.95038
LeftLeg  0.440026 11.3865 -3.2643
LeftFoot  4.41575 0.811806 -6.00672
LeftToes  1.06245e-005 4.65869e-005 -8.65517e-006
1287
root  13.9801 40.6202 10.2228 155.18 86.0596 159.047
RightUpLeg  2.63281 -12.0957 -12.3774
RightLeg  7.41861 -11.4783 2.42068
RightFoot  -0.59689 -0.329893 3.46051
RightToes  0.000481921 0.542163 -0.142578
Spine  -4.79917 0.187967 2.93186
Spine1  15.2392 0.571935 -1.39132
HEad  15.0899 -4.87704 2.55363
LeftShoulder1  7.16752 -17.1789 -28.5431
LeftArm  -3.75257 -73.3295 -34.8509
LeftForeArm  13.0731 -3.02654 -11.1931
LeftHand  -0.25398 0.0180481 5.50724
RightShoulder  2.61566 9.5259 13.1135
RightArm  -12.128 69.8754 49.9346
RightForeArm  -9.80675 -3.83856 5.3968
RightHand  -2.15021 9.09542 -17.5562
LeftUpLeg  3.03733 7.46918 8.90378
LeftLeg  0.374128 11.3902 -3.26116
LeftFoot  4.42175 0.813327 -6.02404
LeftToes  1.06245e-005 4.65869e-005 -8.65517e-006
1288
root  14.0063 40.6211 10.2257 155.266 86.0393 159.147
RightUpLeg  2.71401 -12.0944 -12.3925
RightLeg  7.385 -11.4973 2.43851
RightFoot  -0.615727 -0.330999 3.47902
RightToes  0.000481921 0.542163 -0.142578
Spine  -4.59597 0.0717975 2.68629
Spine1  14.9323 0.388951 -1.15604
HEad  15.1289 -4.49592 2.49334
LeftShoulder1  7.05261 -16.7641 -28.6935
LeftArm  2.1697 -69.8879 -34.1581
LeftForeArm  6.7128 -11.2157 -10.0601
LeftHand  -0.25398 0.0180481 5.50724
RightShoulder  2.78728 9.54942 14.5195
RightArm  -10.7317 66.7424 48.3815
RightForeArm  -11.1398 2.82966 7.16434
RightHand  -2.18547 9.11816 -17.8051
LeftUpLeg  3.11492 7.47423 8.91897
LeftLeg  0.325286 11.353 -3.27552
LeftFoot  4.40721 0.813 -6.01516
LeftToes  1.06245e-005 4.65869e-005 -8.65517e-006
1289
root  14.0384 40.6221 10.2294 155.953 86.0309 159.828
RightUpLeg  2.81562 -12.068 -12.3594
RightLeg  7.29735 -11.5331 2.47778
RightFoot  -0.634434 -0.330107 3.4666
RightToes  0.000481921 0.542163 -0.142578
Spine  -4.36209 -0.0597078 2.40905
Spine1  14.6119 0.150205 -0.800857
HEad  15.0869 -4.25443 2.34781
LeftShoulder1  6.98951 -16.3604 -29.0951
LeftArm  11.2851 -65.6246 -33.5545
LeftForeArm  -2.28575 -21.0794 -6.25201
LeftHand  -0.25398 0.0180481 5.50724
RightShoulder  3.02743 9.64336 16.3493
RightArm  -6.64652 62.8891 46.4158
RightForeArm  -15.0267 11.4995 8.10286
RightHand  -2.17083 8.96553 -17.8685
LeftUpLeg  3.15378 7.51821 8.98859
LeftLeg  0.335206 11.2621 -3.28523
LeftFoot  4.35848 0.81241 -6.00531
LeftToes  1.06245e-005 4.65869e-005 -8.65517e-006
1290
root  14.0773 40.6233 10.2325 156.881 86.0032 160.674
RightUpLeg  2.85008 -12.0358 -12.3056
RightLeg  7.20278 -11.6127 2.51846
RightFoot  -0.663245 -0.329443 3.45779
RightToes  0.000481921 0.542163 -0.142578
Spine  -4.30038 -0.167201 2.11651
Spine1  14.4137 -0.0746773 -0.410358
HEad  14.9913 -4.00879 2.2175
LeftShoulder1  7.01644 -16.1098 -29.6951
LeftArm  6.70965 -60.92 -31.4575
LeftForeArm  1.98479 -29.2418 -6.05192
LeftHand  -0.25398 0.0180481 5.50724
RightShoulder  3.32415 9.78367 18.5083
RightArm  1.9195 58.2101 44.4372
RightForeArm  -24.1117 22.6456 6.74938
RightHand  -2.10701 8.49635 -17.9203
LeftUpLeg  3.09658 7.54347 9.04115
LeftLeg  0.374445 11.1818 -3.27125
LeftFoot  4.29462 0.814135 -6.03526
LeftToes  1.06245e-005 4.65869e-005 -8.65517e-006
1291
root  14.1241 40.6251 10.2353 157.625 85.9633 161.266
RightUpLeg  2.81801 -12.0082 -12.2585
RightLeg  7.11639 -11.7177 2.55292
RightFoot  -0.701078 -0.331029 3.48394
RightToes  0.000481921 0.542163 -0.142578
Spine  -4.46323 -0.198265 1.75009
Spine1  14.4162 -0.253923 0.108557
HEad  14.8947 -3.6829 2.05415
LeftShoulder1  7.13453 -15.9584 -30.5942
LeftArm  1.57399 -56.1175 -29.762
LeftForeArm  8.14766 -36.7743 -7.89282
LeftHand  -0.25398 0.0180481 5.50724
RightShoulder  3.63104 9.89914 20.7387
RightArm  -1.11827 52.7007 41.387
RightForeArm  -21.8214 33.5757 8.50851
RightHand  -1.9766 7.51401 -18.0683
LeftUpLeg  2.99021 7.53049 9.05104
LeftLeg  0.381912 11.148 -3.24446
LeftFoot  4.23922 0.817912 -6.10136
LeftToes  1.06245e-005 4.65869e-005 -8.65517e-006
1292
root  14.1792 40.6273 10.2391 158.361 85.9167 161.853
RightUpLeg  2.82172 -11.9832 -12.2201
RightLeg  6.99906 -11.8205 2.60165
RightFoot  -0.742011 -0.333746 3.52769
RightToes  0.000481921 0.542163 -0.142578
Spine  -4.64446 -0.171355 1.23292
Spine1  14.4594 -0.472894 0.979433
HEad  14.87 -3.38252 1.65723
LeftShoulder1  7.34742 -15.812 -31.9852
LeftArm  -1.29689 -51.2338 -28.4328
LeftForeArm  12.5196 -43.8146 -9.89366
LeftHand  -0.25398 0.0180481 5.50724
RightShoulder  3.90504 9.95198 22.7917
RightArm  -4.41378 46.7663 38.7158
RightForeArm  -16.6455 44.5616 12.0867
RightHand  -1.77256 6.0335 -18.2636
LeftUpLeg  2.92646 7.51993 9.06661
LeftLeg  0.333715 11.1012 -3.23308
LeftFoot  4.19245 0.821195 -6.16435
LeftToes  1.06245e-005 4.65869e-005 -8.65517e-006
1293
root  14.2388 40.6296 10.2432 159.188 85.8692 162.562
RightUpLeg  2.88321 -11.9661 -12.1861
RightLeg  6.86047 -11.8996 2.66594
RightFoot  -0.783803 -0.334864 3.54664
RightToes  0.000481921 0.542163 -0.142578
Spine  -4.58866 -0.210273 0.663729
Spine1  14.2678 -0.801924 1.99811
HEad  14.9428 -3.04746 1.04481
LeftShoulder1  7.60551 -15.6685 -33.6127
LeftArm  -3.62616 -45.7692 -27.0839
LeftForeArm  16.1265 -50.9943 -12.6464
LeftHand  -0.25398 0.0180481 5.50724
RightShoulder  4.18255 9.96772 24.9246
RightArm  -5.98455 40.992 36.391
RightForeArm  -10.9225 54.7945 16.9835
RightHand  -1.56929 4.50933 -18.6013
LeftUpLeg  2.92235 7.53891 9.11196
LeftLeg  0.254691 11.0142 -3.24917
LeftFoot  4.14496 0.822219 -6.19708
LeftToes  1.06245e-005 4.65869e-005 -8.65517e-006
1294
root  14.2968 40.632 10.2452 159.434 85.8733 162.69
RightUpLeg  2.89319 -11.9621 -12.1676
RightLeg  6.77721 -11.9085 2.70701
RightFoot  -0.825095 -0.333438 3.52615
RightToes  0.000481921 0.542163 -0.142578
Spine  -4.41727 -0.381377 0.180732
Spine1  14.0492 -1.18054 2.72072
HEad  14.9155 -2.41694 0.486113
LeftShoulder1  7.81574 -15.5397 -34.9689
LeftArm  -5.92337 -39.4831 -25.7795
LeftForeArm  20.0369 -58.8387 -17.0529
LeftHand  -0.25398 0.0180481 5.50724
RightShoulder  4.4941 9.95295 27.3681
RightArm  -6.36077 35.7047 34.2895
RightForeArm  -4.21648 63.8268 24.4789
RightHand  -1.44092 3.43032 -19.1083
LeftUpLeg  2.93508 7.55674 9.13587
LeftLeg  0.164075 10.9955 -3.28174
LeftFoot  4.10148 0.821145 -6.20256
LeftToes  1.06245e-005 4.65869e-005 -8.65517e-006
1295
root  14.3529 40.6348 10.2426 158.419 85.9815 161.534
RightUpLeg  2.80393 -11.9675 -12.1862
RightLeg  6.76425 -11.7972 2.70878
RightFoot  -0.866267 -0.331327 3.49499
RightToes  0.000481921 0.542163 -0.142578
Spine  -4.35533 -0.606013 -0.187893
Spine1  14.1338 -1.49309 3.01657
HEad  14.6046 -1.50899 0.172316
LeftShoulder1  7.96915 -15.3672 -36.1335
LeftArm  -7.90623 -32.8508 -24.4645
LeftForeArm  26.6995 -66.9929 -24.7529
LeftHand  -0.25398 0.0180481 5.50724
RightShoulder  4.80239 9.92289 29.7999
RightArm  -6.29588 30.5835 32.5753
RightForeArm  7.65291 71.5875 37.5526
RightHand  -1.33006 2.62937 -19.3565
LeftUpLeg  2.96534 7.53713 9.09144
LeftLeg  0.0430737 11.1492 -3.32021
LeftFoot  4.06976 0.819411 -6.20375
LeftToes  1.06245e-005 4.65869e-005 -8.65517e-006
1296
root  14.4133 40.6373 10.2355 156.485 86.1515 159.456
RightUpLeg  2.70696 -11.9788 -12.2451
RightLeg  6.73922 -11.5958 2.71168
RightFoot  -0.913266 -0.331168 3.49411
RightToes  0.000481921 0.542163 -0.142578
Spine  -4.36407 -0.774486 -0.514727
Spine1  14.406 -1.7083 3.17477
HEad  14.1195 -0.801437 0.0530881
LeftShoulder1  8.1484 -15.095 -37.6689
LeftArm  -9.2304 -26.498 -22.7481
LeftForeArm  40.9117 -74.3929 -39.4889
LeftHand  -0.25398 0.0180481 5.50724
RightShoulder  5.03412 9.87327 31.6882
RightArm  -6.28443 25.1099 31.3294
RightForeArm  33.1179 77.2358 63.0449
RightHand  -1.14877 1.62944 -19.0551
LeftUpLeg  3.03706 7.49208 9.00577
LeftLeg  -0.116763 11.4067 -3.36513
LeftFoot  4.03726 0.818439 -6.22334
LeftToes  1.06245e-005 4.65869e-005 -8.65517e-006
1297
root  14.4815 40.6391 10.2262 154.785 86.2959 157.605
RightUpLeg  2.65729 -11.9884 -12.3029
RightLeg  6.65476 -11.4152 2.74126
RightFoot  -0.966763 -0.333825 3.53692
RightToes  0.000481921 0.542163 -0.142578
Spine  -4.27431 -0.873842 -0.793354
Spine1  14.4838 -1.849 3.33711
HEad  13.7742 -0.706175 0.105061
LeftShoulder1  8.36383 -14.7686 -39.5471
LeftArm  -9.91225 -20.4973 -20.5985
LeftForeArm  70.7115 -79.2842 -69.2371
LeftHand  -0.25398 0.0180481 5.50724
RightShoulder  5.16408 9.75048 33.02
RightArm  -6.27314 19.1587 30.3543
RightForeArm  73.7432 78.3819 102.553
RightHand  -0.932275 0.462096 -18.4874
LeftUpLeg  3.10056 7.45912 8.93853
LeftLeg  -0.259894 11.619 -3.41012
LeftFoot  3.97996 0.817896 -6.2566
LeftToes  1.06245e-005 4.65869e-005 -8.65517e-006
1298
root  14.5518 40.6402 10.2184 154.037 86.406 156.679
RightUpLeg  2.59995 -11.9648 -12.2931
RightLeg  6.55263 -11.3354 2.76062
RightFoot  -1.01223 -0.337921 3.602
RightToes  0.000481921 0.542163 -0.142578
Spine  -4.10505 -0.929505 -0.94139
Spine1  14.313 -1.89688 3.34704
HEad  13.7567 -1.12991 0.402436
LeftShoulder1  8.51878 -14.4769 -41.063
LeftArm  -10.0621 -14.6155 -18.5787
LeftForeArm  110.503 -79.4092 -109.215
LeftHand  -0.25398 0.0180481 5.50724
RightShoulder  5.2203 9.53172 34.0983
RightArm  -6.18966 12.8225 29.5713
RightForeArm  105.387 74.9194 132.269
RightHand  -0.732934 -0.600285 -17.6513
LeftUpLeg  3.07726 7.45973 8.92394
LeftLeg  -0.302026 11.7432 -3.43578
LeftFoot  3.88544 0.815535 -6.27347
LeftToes  1.06245e-005 4.65869e-005 -8.65517e-006
